# xmcd
#
# Track frame offsets: 
#        150
#        12017
#        44177
#        70355
#        100435
#        139231
#        165206
#        177488
#        199314
#        225997
#
# Disc length: 3490 seconds
#
# Revision: 0
# Processed by: cddbd v1.5.2PL0 Copyright (c) Steve Scherf et al.
# Submitted via: ExactAudioCopy v1.3
#
DISCID=890da00a
DTITLE=Buddy Guy and Stevie Ray Vaughan - Lone Star Cafe [gisk 1]
DYEAR=1986
DGENRE=Chicago Blues, Electric Blues
TTITLE0=You Don'T Have To Go
TTITLE1=I'Ll Play The Blues For You
TTITLE2=Yonder'S Wall
TTITLE3=Five Long Years
TTITLE4=All Your Love
TTITLE5=Blue Monday
TTITLE6=Crazy About You
TTITLE7=I Just Wanna Make Love To You
TTITLE8=Stormy Monday
TTITLE9=Still Called The Blues
EXTD=
EXTT0=
EXTT1=
EXTT2=
EXTT3=
EXTT4=
EXTT5=
EXTT6=
EXTT7=
EXTT8=
EXTT9=
PLAYORDER=
